<?xml version="1.0" standalone="no"?>
<!DOCTYPE svg PUBLIC "-//W3C//DTD SVG 20010904//EN"
 "http://www.w3.org/TR/2001/REC-SVG-20010904/DTD/svg10.dtd">
<svg version="1.0" xmlns="http://www.w3.org/2000/svg"
 width="612.000000pt" height="612.000000pt" viewBox="0 0 612.000000 612.000000"
 preserveAspectRatio="xMidYMid meet">
<metadata>
Created by potrace 1.14, written by Peter Selinger 2001-2017
</metadata>
<g transform="translate(0.000000,612.000000) scale(0.100000,-0.100000)"
fill="#000000" stroke="none">
<path d="M0 3060 l0 -3060 3060 0 3060 0 0 3060 0 3060 -3060 0 -3060 0 0
-3060z m4438 1728 c9 -9 12 -281 12 -1163 0 -1029 -2 -1157 -16 -1206 -26 -88
-56 -140 -114 -197 -14 -14 -18 -21 -10 -17 8 5 -4 -14 -28 -42 -48 -58 -154
-155 -256 -234 -37 -30 -86 -69 -108 -87 -22 -17 -45 -29 -50 -25 -6 3 -8 2
-5 -4 3 -5 -10 -17 -29 -27 -34 -16 -36 -16 -67 6 -61 42 -212 161 -224 176
-7 9 -13 13 -13 9 0 -4 -9 1 -19 10 -11 9 -17 21 -14 26 3 6 1 7 -5 3 -11 -7
-196 175 -217 214 -7 14 -29 48 -48 77 -72 107 -86 272 -33 388 26 58 89 138
100 127 3 -3 6 0 6 6 0 17 99 68 158 82 49 11 71 11 157 -6 41 -7 113 -51 152
-91 18 -18 35 -33 38 -33 3 0 23 17 44 38 89 86 204 118 320 87 65 -16 168
-76 178 -102 3 -7 9 -13 14 -13 10 0 13 1443 3 1452 -3 3 -31 0 -62 -7 -31 -7
-77 -15 -102 -18 -25 -2 -70 -9 -100 -15 -117 -23 -175 -32 -212 -32 -22 0
-47 -4 -57 -10 -10 -5 -49 -14 -87 -19 -91 -12 -303 -47 -368 -61 -28 -5 -80
-14 -116 -19 -36 -5 -146 -23 -245 -40 -99 -17 -196 -34 -215 -37 -19 -2 -79
-12 -132 -21 l-97 -17 -3 -915 -3 -916 -44 -87 c-48 -98 -132 -201 -241 -298
-40 -36 -77 -70 -84 -75 -6 -6 -38 -31 -71 -55 -33 -25 -61 -48 -63 -52 -2 -5
-8 -8 -13 -8 -6 0 -22 -11 -36 -24 -15 -14 -41 -32 -58 -42 -31 -16 -32 -16
-71 10 -74 50 -113 83 -106 91 4 5 1 5 -7 0 -7 -4 -16 -3 -20 1 -3 5 -26 25
-51 44 -49 38 -71 58 -172 151 -38 34 -68 65 -68 70 0 4 -10 19 -22 32 -48 49
-72 85 -112 167 -40 83 -41 87 -41 191 0 64 4 112 11 120 6 8 15 25 19 38 10
32 51 91 59 84 3 -4 6 0 6 8 1 33 129 105 210 118 63 10 174 -5 163 -22 -3 -6
-1 -7 5 -3 16 10 78 -24 137 -75 28 -24 47 -39 43 -34 -10 11 38 56 98 91 131
77 306 56 414 -49 17 -16 33 -28 35 -25 3 2 5 448 5 991 0 851 2 988 15 1001
13 13 45 21 118 31 60 8 290 47 352 60 39 7 135 23 215 35 80 12 177 27 215
35 39 8 144 26 235 40 91 14 199 32 240 40 41 8 95 17 120 20 85 11 295 47
325 55 46 12 100 11 113 -2z"/>
<path d="M4130 4674 c-195 -34 -455 -77 -540 -89 -25 -3 -92 -15 -150 -25 -58
-10 -166 -28 -240 -40 -74 -12 -182 -30 -240 -40 -58 -11 -169 -29 -247 -42
l-143 -22 0 -194 0 -194 28 6 c27 6 163 29 282 47 137 22 168 27 265 43 55 9
120 21 145 26 25 6 90 17 145 24 132 19 447 72 575 96 25 5 113 19 195 31 83
12 153 25 157 28 4 3 8 90 10 194 l3 187 -25 -1 c-14 -1 -113 -17 -220 -35z"/>
<path d="M3470 2830 c-38 -8 -96 -36 -105 -51 -4 -5 -10 -7 -14 -5 -13 8 -86
-104 -99 -152 -29 -108 3 -223 100 -354 29 -39 52 -75 51 -79 -2 -5 5 -5 14
-2 13 5 15 2 10 -11 -4 -9 -3 -15 1 -12 5 3 35 -21 68 -52 56 -54 100 -90 165
-138 16 -11 25 -25 21 -29 -4 -5 -2 -5 4 -2 6 4 22 -3 36 -16 30 -27 74 -57
86 -57 5 0 30 16 56 35 25 20 46 34 46 31 0 -3 10 5 23 17 12 12 42 38 67 57
95 75 202 180 269 264 84 106 122 257 88 355 -9 25 -13 49 -10 54 4 6 1 7 -7
2 -10 -6 -12 -4 -7 9 4 10 3 15 -3 11 -6 -3 -10 -2 -10 3 0 11 -67 84 -74 80
-3 -2 -14 5 -26 14 -11 10 -20 16 -20 13 0 -2 -12 0 -27 6 -15 5 -53 10 -84
10 -81 1 -141 -29 -215 -108 -55 -57 -64 -64 -82 -54 -12 6 -29 24 -38 41 -18
30 -74 75 -131 103 -37 20 -104 27 -153 17z"/>
<path d="M1550 2507 c-19 -6 -46 -22 -60 -34 -14 -13 -31 -21 -37 -18 -7 2
-12 1 -10 -3 3 -12 -29 -52 -37 -45 -4 4 -4 0 0 -10 3 -9 2 -17 -3 -17 -15 0
-43 -96 -43 -144 1 -101 44 -201 132 -306 61 -73 151 -164 156 -160 2 1 22
-16 45 -37 45 -41 88 -76 132 -108 16 -11 34 -26 41 -32 7 -7 17 -13 22 -13 5
0 15 -7 22 -15 14 -17 23 -12 165 99 294 231 415 396 415 567 0 52 -36 182
-49 175 -4 -3 -17 8 -29 23 -54 74 -210 115 -292 77 -44 -20 -107 -56 -98 -56
4 0 -9 -17 -27 -37 -19 -21 -35 -41 -35 -45 0 -4 -9 -9 -20 -13 -15 -5 -36 10
-92 67 -52 52 -85 77 -114 86 -50 14 -136 14 -184 -1z"/>
</g>
</svg>
